<?xml version="1.0" encoding="UTF-8" standalone="no"?>
<!DOCTYPE svg PUBLIC "-//W3C//DTD SVG 1.1//EN" "http://www.w3.org/Graphics/SVG/1.1/DTD/svg11.dtd">
<svg version="1.1" xmlns="http://www.w3.org/2000/svg" xmlns:xlink="http://www.w3.org/1999/xlink" preserveAspectRatio="xMidYMid meet" viewBox="4.556427196856507 -0.9999999999999938 175.7335728031435 387.96499254187114" width="171.73" height="383.96"><defs><path d="M154.1 267.85C154.1 331.94 123.73 383.96 86.32 383.96C48.92 383.96 18.55 331.94 18.55 267.85C18.55 203.77 48.92 151.74 86.32 151.74C123.73 151.74 154.1 203.77 154.1 267.85Z" id="bAy5y171a"></path><path d="M147.99 120.08C147.99 157.79 120.36 188.41 86.32 188.41C52.29 188.41 24.66 157.79 24.66 120.08C24.66 82.36 52.29 51.74 86.32 51.74C120.36 51.74 147.99 82.36 147.99 120.08Z" id="a1KFbn9gXW"></path><path d="M159.78 57.91C143.27 81.55 122.35 95.49 113.08 89.02C103.81 82.55 109.69 58.11 126.2 34.47C142.71 10.82 163.63 -3.12 172.9 3.35C182.17 9.82 176.29 34.27 159.78 57.91Z" id="aZnLiPpnJ"></path><path d="M55.07 35.78C69.73 60.61 73.73 85.43 63.99 91.18C54.26 96.92 34.46 81.43 19.8 56.6C5.14 31.77 1.14 6.94 10.87 1.2C20.61 -4.55 40.41 10.95 55.07 35.78Z" id="a17zvht2GA"></path></defs><g><g><use xlink:href="#bAy5y171a" opacity="1" fill="#8c898a" fill-opacity="1"></use></g><g><use xlink:href="#a1KFbn9gXW" opacity="1" fill="#8c898a" fill-opacity="1"></use></g><g><use xlink:href="#aZnLiPpnJ" opacity="1" fill="#8c898a" fill-opacity="1"></use></g><g><use xlink:href="#a17zvht2GA" opacity="1" fill="#8c898a" fill-opacity="1"></use></g></g></svg>