<?xml version="1.0" encoding="UTF-8" standalone="no"?>
<!DOCTYPE svg PUBLIC "-//W3C//DTD SVG 1.1//EN" "http://www.w3.org/Graphics/SVG/1.1/DTD/svg11.dtd">
<svg version="1.1" xmlns="http://www.w3.org/2000/svg" xmlns:xlink="http://www.w3.org/1999/xlink" preserveAspectRatio="xMidYMid meet" viewBox="282.122695814145 143.00795046191845 64.71428571428584 168.60314669521105" width="60.71" height="164.6"><defs><path d="M330.74 166.04C330.74 177.21 323.01 186.27 313.48 186.27C303.95 186.27 296.22 177.21 296.22 166.04C296.22 154.87 303.95 145.8 313.48 145.8C323.01 145.8 330.74 154.87 330.74 166.04Z" id="c4if3RtKNz"></path><path d="M343.84 230.74C343.84 259.65 330.23 283.12 313.48 283.12C296.73 283.12 283.12 259.65 283.12 230.74C283.12 201.83 296.73 178.36 313.48 178.36C330.23 178.36 343.84 201.83 343.84 230.74Z" id="a7O52e8BiX"></path><path d="M322.18 160.87L320.03 147.95L332.94 145.8L335.1 158.72L322.18 160.87Z" id="d16i1svSpn"></path><path d="M308.01 148.61L303.41 160.87L291.14 156.27L295.74 144.01L308.01 148.61Z" id="g8o3Ufhuw"></path><path d="M318.69 277.46C318.69 294.65 316.29 308.61 313.33 308.61C310.38 308.61 307.98 294.65 307.98 277.46C307.98 260.27 310.38 246.31 313.33 246.31C316.29 246.31 318.69 260.27 318.69 277.46Z" id="bpHR0YrXx"></path></defs><g><g><use xlink:href="#c4if3RtKNz" opacity="1" fill="#edc473" fill-opacity="1"></use></g><g><use xlink:href="#a7O52e8BiX" opacity="1" fill="#edc473" fill-opacity="1"></use></g><g><use xlink:href="#d16i1svSpn" opacity="1" fill="#936e18" fill-opacity="1"></use></g><g><use xlink:href="#g8o3Ufhuw" opacity="1" fill="#936e18" fill-opacity="1"></use></g><g><use xlink:href="#bpHR0YrXx" opacity="1" fill="#edc473" fill-opacity="1"></use></g></g></svg>