<?xml version="1.0" encoding="UTF-8" standalone="no"?>
<!DOCTYPE svg PUBLIC "-//W3C//DTD SVG 1.1//EN" "http://www.w3.org/Graphics/SVG/1.1/DTD/svg11.dtd">
<svg version="1.1" xmlns="http://www.w3.org/2000/svg" xmlns:xlink="http://www.w3.org/1999/xlink" preserveAspectRatio="xMidYMid meet" viewBox="356.79086098231005 165.6428571428571 48.71428571428578 43.86980831993307" width="44.71" height="39.87"><defs><path d="M393.74 192.43C393.74 200.2 387.87 206.51 380.64 206.51C373.41 206.51 367.53 200.2 367.53 192.43C367.53 184.67 373.41 178.36 380.64 178.36C387.87 178.36 393.74 184.67 393.74 192.43Z" id="d13QZgJt4d"></path><path d="M368.51 181.36C368.51 184.31 366.1 186.71 363.15 186.71C360.19 186.71 357.79 184.31 357.79 181.36C357.79 178.4 360.19 176 363.15 176C366.1 176 368.51 178.4 368.51 181.36Z" id="a3BTcHWBMG"></path><path d="M378.25 172C378.25 174.96 375.85 177.36 372.89 177.36C369.94 177.36 367.53 174.96 367.53 172C367.53 169.04 369.94 166.64 372.89 166.64C375.85 166.64 378.25 169.04 378.25 172Z" id="a4nhHB2OY"></path><path d="M391.35 172C391.35 174.96 388.95 177.36 385.99 177.36C383.04 177.36 380.64 174.96 380.64 172C380.64 169.04 383.04 166.64 385.99 166.64C388.95 166.64 391.35 169.04 391.35 172Z" id="a26e8X08rO"></path><path d="M402.51 181.36C402.51 184.31 400.1 186.71 397.15 186.71C394.19 186.71 391.79 184.31 391.79 181.36C391.79 178.4 394.19 176 397.15 176C400.1 176 402.51 178.4 402.51 181.36Z" id="a9akM909G5"></path></defs><g><g><use xlink:href="#d13QZgJt4d" opacity="1" fill="#8c898a" fill-opacity="1"></use></g><g><use xlink:href="#a3BTcHWBMG" opacity="1" fill="#8c898a" fill-opacity="1"></use></g><g><use xlink:href="#a4nhHB2OY" opacity="1" fill="#8c898a" fill-opacity="1"></use></g><g><use xlink:href="#a26e8X08rO" opacity="1" fill="#8c898a" fill-opacity="1"></use></g><g><use xlink:href="#a9akM909G5" opacity="1" fill="#8c898a" fill-opacity="1"></use></g></g></svg>
