<?xml version="1.0" encoding="UTF-8" standalone="no"?>
<!DOCTYPE svg PUBLIC "-//W3C//DTD SVG 1.1//EN" "http://www.w3.org/Graphics/SVG/1.1/DTD/svg11.dtd">
<svg version="1.1" xmlns="http://www.w3.org/2000/svg" xmlns:xlink="http://www.w3.org/1999/xlink" preserveAspectRatio="xMidYMid meet" viewBox="286.1174508194969 143.00795046191845 56.71953070893386 114.603146695211" width="52.72" height="110.6"><defs><path d="M339.84 209.04C339.84 228.19 328.03 243.73 313.48 243.73C298.93 243.73 287.12 228.19 287.12 209.04C287.12 189.9 298.93 174.36 313.48 174.36C328.03 174.36 339.84 189.9 339.84 209.04Z" id="g2BMtLgw8h"></path><path d="M330.74 163.58C330.74 173.39 323.01 181.36 313.48 181.36C303.95 181.36 296.22 173.39 296.22 163.58C296.22 153.77 303.95 145.8 313.48 145.8C323.01 145.8 330.74 153.77 330.74 163.58Z" id="a1F1VeBS"></path><path d="M322.18 160.87L320.03 147.95L332.94 145.8L335.1 158.72L322.18 160.87Z" id="ezCyWtcQ6"></path><path d="M307.98 148.61L303.38 160.87L291.12 156.27L295.72 144.01L307.98 148.61Z" id="a5zGIv5ipr"></path><path d="M320.03 243.67C320.03 249.71 317.09 254.61 313.48 254.61C309.87 254.61 306.93 249.71 306.93 243.67C306.93 237.63 309.87 232.73 313.48 232.73C317.09 232.73 320.03 237.63 320.03 243.67Z" id="b7VLZhSEn"></path></defs><g><g><use xlink:href="#g2BMtLgw8h" opacity="1" fill="#edc473" fill-opacity="1"></use></g><g><use xlink:href="#a1F1VeBS" opacity="1" fill="#edc473" fill-opacity="1"></use></g><g><use xlink:href="#ezCyWtcQ6" opacity="1" fill="#936e18" fill-opacity="1"></use></g><g><use xlink:href="#a5zGIv5ipr" opacity="1" fill="#936e18" fill-opacity="1"></use></g><g><use xlink:href="#b7VLZhSEn" opacity="1" fill="#edc473" fill-opacity="1"></use></g></g></svg>